# xmcd CD database file
#
# Track frame offsets:
#	150
#	16322
#	36831
#	60193
#	77944
#	94882
#	112886
#	132455
#	151042
#	168920
#	190195
#	207288
#	224612
#	244457
#
# Disc length: 3486 seconds
#
# Revision: 1
# Processed by: cddbd v1.4PL0 Copyright (c) Steve Scherf et al.
# Submitted via: CDex 1.51
#
DISCID=bb0d9c0e
DTITLE=Bruno and Marrone - Ligaçâo Urbana
DYEAR=2001
DGENRE=Country
TTITLE0=Ligaçâo Urbana
TTITLE1=Bijuteria
TTITLE2=O Homem e o Meu Tempo
TTITLE3=Parabéns Pro Nosso Amor
TTITLE4=Usted
TTITLE5=Medo
TTITLE6=Agora Vai
TTITLE7=Eu Queria
TTITLE8=Entâo Pode Ir
TTITLE9=Se Tiver Coragem Joga Fora
TTITLE10=Menina
TTITLE11=Cama Vazia
TTITLE12=Rema Contra A Maré
TTITLE13=Metade De Metade
EXTD=YEAR: 2001
EXTT0=
EXTT1=
EXTT2=
EXTT3=
EXTT4=
EXTT5=
EXTT6=
EXTT7=
EXTT8=
EXTT9=
EXTT10=
EXTT11=
EXTT12=
EXTT13=
PLAYORDER=
